<?xml version="1.0" encoding="iso-8859-1"?>
<!-- Generator: Adobe Illustrator 19.0.0, SVG Export Plug-In . SVG Version: 6.00 Build 0)  -->
<svg version="1.1" id="Capa_1" xmlns="http://www.w3.org/2000/svg" xmlns:xlink="http://www.w3.org/1999/xlink" x="0px" y="0px"
	 viewBox="0 0 512 512" style="enable-background:new 0 0 512 512;" xml:space="preserve">
<g>
	<g>
		<path d="M397.069,494.93C395.21,493.069,392.64,492,390,492c-2.63,0-5.21,1.069-7.07,2.93c-1.86,1.861-2.93,4.44-2.93,7.07
			s1.069,5.21,2.93,7.069c1.86,1.86,4.44,2.931,7.07,2.931s5.21-1.07,7.069-2.931C398.93,507.21,400,504.63,400,502
			S398.93,496.79,397.069,494.93z"/>
	</g>
</g>
<g>
	<g>
		<path d="M459.856,397.063l-26.26-4.854c-5.378-0.995-9.867-5.939-9.94-11.803C444.15,368.678,458,346.611,458,321.355v-38.598
			c0-37.495-30.505-68-68-68c-11.659,0-22.641,2.953-32.241,8.145V196h9.491c32.395,0,58.75-26.355,58.75-58.75v-78.5
			C426,26.355,399.645,0,367.25,0H256.21c-5.522,0-10,4.478-10,10s4.478,10,10,10h111.04C388.617,20,406,37.383,406,58.75v78.5
			c0,21.367-17.383,38.75-38.75,38.75h-19.491c-5.522,0-10,4.478-10,10v17.524l-24.596-24.596c-1.876-1.875-4.419-2.929-7.071-2.929
			H205.908c-2.652,0-5.195,1.054-7.071,2.929l-24.596,24.596V186c0-5.522-4.478-10-10-10H144.75c-21.367,0-38.75-17.383-38.75-38.75
			v-78.5C106,37.383,123.383,20,144.75,20h21.359c5.522,0,10-4.478,10-10s-4.478-10-10-10H144.75C112.355,0,86,26.355,86,58.75v78.5
			c0,32.395,26.355,58.75,58.75,58.75h9.491v26.903c-9.601-5.192-20.582-8.145-32.241-8.145c-37.495,0-68,30.505-68,68v38.598
			c0,25.25,13.844,47.313,34.33,59.041c-0.07,5.88-4.559,10.816-9.941,11.811l-26.248,4.854C21.929,402.647,0,429.002,0,459.728V502
			c0,5.522,4.478,10,10,10h224c5.522,0,10-4.478,10-10v-42.271c0-30.726-21.93-57.08-52.144-62.666l-26.26-4.854
			c-5.378-0.995-9.867-5.939-9.94-11.803C176.15,368.678,190,346.611,190,321.355v-38.598c0-18.443-7.391-35.184-19.354-47.447
			c0.224-0.188,0.457-0.364,0.666-0.573L210.051,196h91.898l38.738,38.738c0.208,0.208,0.428,0.402,0.651,0.589
			C329.385,247.588,322,264.323,322,282.758v38.598c0,25.25,13.844,47.313,34.33,59.041c-0.07,5.88-4.559,10.816-9.941,11.811
			l-26.248,4.854C289.929,402.647,268,429.002,268,459.728V502c0,5.522,4.478,10,10,10h72c5.522,0,10-4.478,10-10
			c0-5.522-4.478-10-10-10h-62v-32.272c0-21.083,15.047-39.167,35.777-43l26.248-4.854c0.856-0.158,1.697-0.354,2.525-0.577
			l28.978,46.338c1.828,2.923,5.032,4.698,8.479,4.698c3.447,0,6.651-1.776,8.479-4.699l28.963-46.333
			c0.824,0.221,1.66,0.416,2.512,0.574l26.26,4.854c20.732,3.833,35.779,21.917,35.779,43V492h-64.5c-5.522,0-10,4.478-10,10
			c0,5.522,4.478,10,10,10H502c5.522,0,10-4.478,10-10v-42.271C512,429.003,490.07,402.648,459.856,397.063z M74,285.324v-2.566
			c0-26.468,21.532-48,48-48c25.261,0,46.026,19.613,47.867,44.412l-23.602-13.866c-4.211-2.475-9.593-1.544-12.73,2.199
			c-10.234,12.213-25.242,19.218-41.177,19.218H74V285.324z M159.449,411.301c0.824,0.221,1.66,0.416,2.512,0.574l26.26,4.854
			c20.732,3.833,35.779,21.917,35.779,43V492H20v-32.272c0-21.083,15.047-39.167,35.777-43l26.248-4.854
			c0.856-0.158,1.697-0.354,2.525-0.577l28.978,46.338c1.828,2.923,5.032,4.698,8.479,4.698s6.651-1.776,8.479-4.699
			L159.449,411.301z M101.283,400.336c2.915-3.644,5.042-7.921,6.158-12.565c4.693,1.028,9.561,1.585,14.558,1.585
			c4.992,0,9.855-0.556,14.544-1.582c1.118,4.647,3.248,8.927,6.167,12.573l-20.706,33.123L101.283,400.336z M170,321.355
			c0,26.468-21.532,48-48,48s-48-21.532-48-48V306.72h18.358c18.993,0,37.026-7.251,50.642-20.14l27,15.863V321.355z M342,285.324
			v-2.565c0-26.468,21.532-48,48-48c25.261-0.001,46.026,19.612,47.867,44.411l-23.602-13.866c-4.211-2.475-9.593-1.544-12.73,2.199
			c-10.234,12.213-25.242,19.218-41.177,19.218H342V285.324z M342,321.355V306.72h18.358c18.993,0,37.026-7.251,50.642-20.14
			l27,15.863v18.912c0,26.468-21.532,48-48,48C363.532,369.355,342,347.823,342,321.355z M390.005,433.47l-20.721-33.134
			c2.915-3.644,5.042-7.921,6.158-12.565c4.693,1.028,9.561,1.585,14.558,1.585c4.992,0,9.855-0.556,14.544-1.582
			c1.117,4.648,3.247,8.928,6.166,12.573L390.005,433.47z"/>
	</g>
</g>
<g>
	<g>
		<path d="M218.83,2.93C216.97,1.07,214.399,0,211.76,0c-2.63,0-5.21,1.069-7.07,2.93c-1.859,1.86-2.93,4.44-2.93,7.07
			s1.07,5.21,2.93,7.069c1.86,1.861,4.44,2.931,7.07,2.931c2.64,0,5.21-1.07,7.07-2.931c1.87-1.859,2.939-4.439,2.939-7.069
			S220.7,4.79,218.83,2.93z"/>
	</g>
</g>
<g>
	<g>
		<path d="M308.07,63.081c-3.906-3.904-10.236-3.904-14.143,0l-34.296,34.297l-13.242-13.244c-3.906-3.904-10.238-3.904-14.143,0
			c-3.905,3.905-3.905,10.237,0,14.143l20.315,20.314c1.953,1.952,4.512,2.929,7.071,2.929s5.118-0.977,7.071-2.929l41.367-41.367
			C311.975,73.319,311.975,66.987,308.07,63.081z"/>
	</g>
</g>
<g>
	<g>
		<path d="M299.841,127.698c-3.906-3.904-10.236-3.904-14.143,0c-16.375,16.377-43.021,16.377-59.396,0
			c-16.376-16.376-16.376-43.021,0-59.396C234.234,60.369,244.782,56,256.001,56c5.522,0,10-4.478,10-10s-4.478-10-10-10
			c-16.562,0-32.131,6.449-43.842,18.159c-24.174,24.174-24.174,63.508,0,87.682c12.087,12.087,27.964,18.13,43.841,18.13
			s31.754-6.043,43.841-18.13C303.746,137.936,303.746,131.604,299.841,127.698z"/>
	</g>
</g>
<g>
	<g>
		<path d="M105.51,311.6c-1.86-1.87-4.44-2.93-7.07-2.93s-5.199,1.06-7.069,2.93c-1.86,1.86-2.931,4.431-2.931,7.07
			c0,2.63,1.07,5.2,2.931,7.07c1.859,1.859,4.439,2.93,7.069,2.93c2.641,0,5.21-1.07,7.07-2.93c1.87-1.87,2.94-4.44,2.94-7.07
			S107.38,313.46,105.51,311.6z"/>
	</g>
</g>
<g>
	<g>
		<path d="M152.63,311.59c-1.86-1.861-4.441-2.92-7.07-2.92c-2.64,0-5.21,1.06-7.08,2.92c-1.859,1.87-2.92,4.44-2.92,7.08
			c0,2.63,1.061,5.21,2.92,7.07c1.87,1.859,4.44,2.93,7.08,2.93c2.63,0,5.21-1.07,7.07-2.93s2.93-4.44,2.93-7.07
			S154.491,313.46,152.63,311.59z"/>
	</g>
</g>
<g>
	<g>
		<path d="M137.721,335.312c-3.906-3.905-10.236-3.905-14.142,0c-0.932,0.932-2.445,0.932-3.377,0
			c-3.906-3.904-10.236-3.904-14.143,0c-3.905,3.905-3.905,10.237,0,14.143c4.365,4.364,10.098,6.547,15.831,6.547
			c5.733,0,11.466-2.183,15.831-6.547C141.626,345.55,141.626,339.218,137.721,335.312z"/>
	</g>
</g>
<g>
	<g>
		<path d="M373.509,311.6c-1.85-1.87-4.43-2.93-7.07-2.93c-2.63,0-5.21,1.06-7.069,2.93c-1.86,1.86-2.931,4.431-2.931,7.07
			c0,2.63,1.07,5.21,2.931,7.07c1.859,1.859,4.439,2.93,7.069,2.93c2.641,0,5.221-1.07,7.07-2.93c1.871-1.86,2.93-4.44,2.93-7.07
			S375.379,313.46,373.509,311.6z"/>
	</g>
</g>
<g>
	<g>
		<path d="M420.63,311.6c-1.87-1.87-4.44-2.93-7.08-2.93c-2.63,0-5.2,1.06-7.06,2.93c-1.87,1.86-2.931,4.431-2.931,7.07
			c0,2.63,1.061,5.21,2.931,7.07c1.86,1.86,4.43,2.93,7.06,2.93c2.64,0,5.21-1.07,7.08-2.93c1.86-1.86,2.93-4.44,2.93-7.07
			C423.56,316.03,422.491,313.46,420.63,311.6z"/>
	</g>
</g>
<g>
	<g>
		<path d="M405.722,335.312c-3.906-3.904-10.236-3.904-14.143,0c-0.932,0.932-2.445,0.932-3.377,0
			c-3.906-3.904-10.236-3.904-14.143,0c-3.905,3.905-3.905,10.237,0,14.143c4.365,4.364,10.098,6.547,15.831,6.547
			c5.733,0,11.466-2.183,15.831-6.547C409.627,345.549,409.627,339.217,405.722,335.312z"/>
	</g>
</g>
<g>
</g>
<g>
</g>
<g>
</g>
<g>
</g>
<g>
</g>
<g>
</g>
<g>
</g>
<g>
</g>
<g>
</g>
<g>
</g>
<g>
</g>
<g>
</g>
<g>
</g>
<g>
</g>
<g>
</g>
</svg>
