<?xml version="1.0"?>
<svg xmlns="http://www.w3.org/2000/svg" xmlns:xlink="http://www.w3.org/1999/xlink" xmlns:svgjs="http://svgjs.com/svgjs" version="1.1" width="512" height="512" x="0" y="0" viewBox="0 0 197.977 197.977" style="enable-background:new 0 0 512 512" xml:space="preserve" class=""><g>
<g xmlns="http://www.w3.org/2000/svg">
	<g>
		<path d="M194.563,68.268h-8.557c-1.884,0-3.413,1.529-3.413,3.413c0,1.884,1.529,3.413,3.413,3.413h5.144v112.64H6.83V75.095    h24.31c1.884,0,3.413-1.529,3.413-3.413c0-1.884-1.529-3.413-3.413-3.413H3.417c-1.884,0-3.413,1.529-3.413,3.413v119.467    c0,1.884,1.529,3.413,3.413,3.413h191.147c1.886,0,3.413-1.529,3.413-3.413V71.682C197.977,69.798,196.448,68.268,194.563,68.268z    " fill="#ff3b3f" data-original="#000000" style="" class=""/>
	</g>
</g>
<g xmlns="http://www.w3.org/2000/svg">
	<g>
		<path d="M127.841,68.268H58.044c-1.884,0-3.413,1.529-3.413,3.413c0,1.884,1.529,3.413,3.413,3.413h69.798    c1.886,0,3.413-1.529,3.413-3.413C131.255,69.798,129.725,68.268,127.841,68.268z" fill="#ff3b3f" data-original="#000000" style="" class=""/>
	</g>
</g>
<g xmlns="http://www.w3.org/2000/svg">
	<g>
		<g>
			<path d="M57.46,118.627c-4.611-0.519-8.081-1.295-11.114-3.563c-1.509-1.126-3.647-0.819-4.777,0.688     c-1.128,1.51-0.821,3.651,0.689,4.779c4.731,3.538,9.935,4.374,14.44,4.879c0.13,0.015,0.258,0.022,0.386,0.022     c1.714,0,3.193-1.289,3.386-3.033C60.682,120.525,59.334,118.837,57.46,118.627z" fill="#ff3b3f" data-original="#000000" style="" class=""/>
			<path d="M38.519,99.282c0-1.626,0.23-3.289,0.686-4.942c0.5-1.818-0.567-3.697-2.384-4.197c-1.816-0.509-3.695,0.567-4.197,2.383     c-0.618,2.244-0.932,4.518-0.932,6.757c0,2.951,0.544,5.897,1.618,8.759c0.514,1.37,1.814,2.217,3.197,2.217     c0.398,0,0.804-0.072,1.198-0.218c1.765-0.662,2.659-2.63,1.997-4.395C38.917,103.55,38.519,101.41,38.519,99.282z" fill="#ff3b3f" data-original="#000000" style="" class=""/>
			<path d="M84.057,127.044c-3.77-3.016-7.888-5.101-12.59-6.373c-1.816-0.483-3.693,0.584-4.186,2.403     c-0.493,1.819,0.584,3.693,2.403,4.186c3.831,1.036,7.043,2.661,10.109,5.113c0.174,0.14,0.345,0.282,0.514,0.43     c0.647,0.565,1.447,0.843,2.244,0.843c0.951,0,1.896-0.396,2.572-1.167c1.241-1.418,1.097-3.574-0.323-4.816     C84.555,127.452,84.308,127.244,84.057,127.044z" fill="#ff3b3f" data-original="#000000" style="" class=""/>
			<path d="M93.524,165.152c-0.005,0-0.01,0-0.014,0c-1.879,0-3.406,1.517-3.413,3.4c-0.021,5.403-0.381,10.23-0.678,13.324     c-0.181,1.877,1.193,3.545,3.07,3.726c0.113,0.01,0.222,0.015,0.331,0.015c1.739,0,3.226-1.323,3.393-3.087     c0.312-3.239,0.688-8.288,0.71-13.95C96.93,166.693,95.408,165.161,93.524,165.152z" fill="#ff3b3f" data-original="#000000" style="" class=""/>
			<path d="M92.771,158.348c0.138,0,0.278-0.009,0.418-0.027c1.872-0.229,3.203-1.932,2.975-3.802     c-0.647-5.299-1.712-10.027-3.168-14.046c-0.642-1.771-2.601-2.688-4.372-2.048c-1.772,0.642-2.688,2.599-2.048,4.372     c1.28,3.54,2.226,7.76,2.811,12.551C89.598,157.08,91.069,158.348,92.771,158.348z" fill="#ff3b3f" data-original="#000000" style="" class=""/>
		</g>
	</g>
</g>
<g xmlns="http://www.w3.org/2000/svg">
	<g>
		<path d="M195.871,116.316c-1.773-0.741-43.68-17.814-62.116,7.994c-16.983,23.774-42.921,35.596-64.551,29.421    c-7.108-2.031-13.355-5.043-19.395-7.955c-14.073-6.787-27.365-13.196-47.594-5.613c-1.765,0.662-2.659,2.63-1.997,4.395    c0.66,1.763,2.627,2.654,4.395,1.999c17.497-6.562,28.959-1.033,42.233,5.369c6.299,3.036,12.812,6.178,20.485,8.37    c4.42,1.265,8.987,1.876,13.616,1.876c20.924,0,43.09-12.503,58.363-33.896c15.276-21.385,53.553-5.818,53.938-5.658    c1.744,0.725,3.738-0.102,4.461-1.841C198.432,119.037,197.611,117.04,195.871,116.316z" fill="#ff3b3f" data-original="#000000" style="" class=""/>
	</g>
</g>
<g xmlns="http://www.w3.org/2000/svg">
	<g>
		<path d="M142.147,92.802c-0.2-1.872-1.87-3.207-3.755-3.034c-9.716,1.029-18.772,3.053-26.912,6.013    c-36.874,13.409-48.776,7.264-61.566-2.881c-1.478-1.169-3.625-0.92-4.796,0.553c-1.172,1.48-0.925,3.625,0.553,4.797    c9.475,7.514,18.483,12.095,31.399,12.095c9.532,0,21.195-2.497,36.743-8.148c7.62-2.772,16.133-4.671,25.3-5.641    C140.986,96.357,142.346,94.677,142.147,92.802z" fill="#ff3b3f" data-original="#000000" style="" class=""/>
	</g>
</g>
<g xmlns="http://www.w3.org/2000/svg">
	<g>
		<path d="M194.954,93.739c-0.314-0.084-7.863-2.079-19.418-3.471c-1.877-0.236-3.574,1.106-3.797,2.98    c-0.225,1.872,1.108,3.572,2.98,3.797c11.04,1.335,18.406,3.272,18.48,3.292c0.294,0.078,0.589,0.114,0.879,0.114    c1.509,0,2.889-1.007,3.296-2.536C197.857,96.094,196.775,94.225,194.954,93.739z" fill="#ff3b3f" data-original="#000000" style="" class=""/>
	</g>
</g>
<g xmlns="http://www.w3.org/2000/svg">
	<g>
		<g>
			<path d="M128.043,173.261c-1.563-1.05-3.685-0.638-4.738,0.925c-2.528,3.753-4.936,7.806-7.158,12.049     c-0.874,1.669-0.23,3.732,1.44,4.606c0.505,0.266,1.046,0.391,1.58,0.391c1.229,0,2.417-0.666,3.029-1.831     c2.106-4.023,4.384-7.859,6.77-11.402C130.021,176.435,129.608,174.314,128.043,173.261z" fill="#ff3b3f" data-original="#000000" style="" class=""/>
			<path d="M142.029,153.155c-3.541,2.954-6.95,6.279-10.129,9.878c-1.249,1.413-1.116,3.57,0.297,4.818     c0.649,0.573,1.456,0.855,2.258,0.855c0.944,0,1.884-0.391,2.562-1.154c2.953-3.342,6.112-6.422,9.388-9.158     c1.446-1.208,1.64-3.359,0.432-4.806C145.628,152.137,143.474,151.946,142.029,153.155z" fill="#ff3b3f" data-original="#000000" style="" class=""/>
			<path d="M166.579,138.976c-4.434,1.589-8.782,3.613-12.921,6.016c-1.63,0.944-2.185,3.034-1.239,4.664     c0.633,1.092,1.778,1.7,2.956,1.7c0.582,0,1.171-0.148,1.71-0.459c3.784-2.195,7.752-4.043,11.798-5.494     c1.775-0.637,2.698-2.591,2.062-4.366C170.308,139.261,168.351,138.337,166.579,138.976z" fill="#ff3b3f" data-original="#000000" style="" class=""/>
			<path d="M195.004,134.857c-0.174-0.022-1.78-0.222-4.519-0.222c-3.227,0-6.613,0.273-10.063,0.806     c-1.862,0.288-3.139,2.033-2.85,3.895c0.261,1.686,1.714,2.891,3.369,2.891c0.174,0,0.35-0.014,0.526-0.039     c3.106-0.481,6.139-0.725,9.018-0.725c2.299,0,3.632,0.164,3.644,0.166c1.865,0.253,3.574-1.077,3.818-2.944     C198.19,136.815,196.872,135.103,195.004,134.857z" fill="#ff3b3f" data-original="#000000" style="" class=""/>
		</g>
	</g>
</g>
<g xmlns="http://www.w3.org/2000/svg">
	<g>
		<g>
			<path d="M44.377,3.415c-18.193,0-32.995,14.802-32.995,32.997c0,7.465,5.171,18.97,15.369,34.195     c7.404,11.054,14.684,19.937,14.99,20.309c0.647,0.788,1.616,1.246,2.637,1.246c1.021,0,1.99-0.457,2.637-1.248     c0.305-0.37,7.586-9.254,14.99-20.309C72.2,55.38,77.372,43.875,77.372,36.41C77.372,18.217,62.57,3.415,44.377,3.415z      M44.377,83.29c-9.182-11.711-26.168-35.681-26.168-46.88c0-14.43,11.738-26.168,26.168-26.168S70.547,21.98,70.545,36.41     C70.545,47.611,53.56,71.581,44.377,83.29z" fill="#ff3b3f" data-original="#000000" style="" class=""/>
			<path d="M44.377,14.793c-10.665,0-19.342,8.677-19.342,19.342s8.675,19.342,19.342,19.342c10.667,0,19.342-8.677,19.342-19.342     S55.042,14.793,44.377,14.793z M44.377,46.65c-6.9,0-12.515-5.615-12.515-12.515c0-6.9,5.615-12.515,12.515-12.515     c6.902,0,12.515,5.615,12.515,12.515C56.892,41.035,51.277,46.65,44.377,46.65z" fill="#ff3b3f" data-original="#000000" style="" class=""/>
		</g>
	</g>
</g>
<g xmlns="http://www.w3.org/2000/svg">
	<g>
		<g>
			<path d="M157.017,30.723c-18.193,0-32.995,14.802-32.995,32.995c0,7.465,5.171,18.97,15.369,34.195     c7.404,11.054,14.684,19.937,14.99,20.309c0.647,0.788,1.616,1.246,2.637,1.246c1.021,0,1.99-0.457,2.637-1.246     c0.306-0.37,7.586-9.254,14.99-20.309c10.197-15.225,15.369-26.73,15.369-34.195C190.012,45.525,175.21,30.723,157.017,30.723z      M157.017,110.597c-9.182-11.711-26.168-35.681-26.168-46.88c0-14.43,11.738-26.168,26.168-26.168s26.17,11.738,26.168,26.168     C183.185,74.918,166.2,98.888,157.017,110.597z" fill="#ff3b3f" data-original="#000000" style="" class=""/>
			<path d="M157.017,42.1c-10.665,0-19.342,8.677-19.342,19.342c0,10.665,8.675,19.342,19.342,19.342s19.342-8.677,19.342-19.342     C176.358,50.777,167.682,42.1,157.017,42.1z M157.017,73.957c-6.9,0-12.515-5.615-12.515-12.515     c0-6.9,5.615-12.515,12.515-12.515c6.902,0,12.515,5.615,12.515,12.515C169.532,68.342,163.917,73.957,157.017,73.957z" fill="#ff3b3f" data-original="#000000" style="" class=""/>
		</g>
	</g>
</g>
<g xmlns="http://www.w3.org/2000/svg">
</g>
<g xmlns="http://www.w3.org/2000/svg">
</g>
<g xmlns="http://www.w3.org/2000/svg">
</g>
<g xmlns="http://www.w3.org/2000/svg">
</g>
<g xmlns="http://www.w3.org/2000/svg">
</g>
<g xmlns="http://www.w3.org/2000/svg">
</g>
<g xmlns="http://www.w3.org/2000/svg">
</g>
<g xmlns="http://www.w3.org/2000/svg">
</g>
<g xmlns="http://www.w3.org/2000/svg">
</g>
<g xmlns="http://www.w3.org/2000/svg">
</g>
<g xmlns="http://www.w3.org/2000/svg">
</g>
<g xmlns="http://www.w3.org/2000/svg">
</g>
<g xmlns="http://www.w3.org/2000/svg">
</g>
<g xmlns="http://www.w3.org/2000/svg">
</g>
<g xmlns="http://www.w3.org/2000/svg">
</g>
</g></svg>
