<?xml version="1.0"?>
<svg xmlns="http://www.w3.org/2000/svg" xmlns:xlink="http://www.w3.org/1999/xlink" xmlns:svgjs="http://svgjs.com/svgjs" version="1.1" width="512" height="512" x="0" y="0" viewBox="0 0 511.999 511.999" style="enable-background:new 0 0 512 512" xml:space="preserve" class=""><g>
<g xmlns="http://www.w3.org/2000/svg">
	<g>
		<path d="M424.969,269.398c-1.62-1.995-3.587-3.611-5.779-4.796c0.765-4.009,1.159-8.096,1.159-12.208    c0-34.273-26.758-62.397-60.477-64.622v-79.007c0-20.72-5.844-40.905-16.9-58.374c-2.216-3.5-6.85-4.541-10.348-2.327    c-3.5,2.215-4.542,6.848-2.327,10.348c9.535,15.065,14.575,32.477,14.575,50.352v28.108c-8.491-1.214-21.32-0.86-35.974,6.953    c-3.655,1.949-5.038,6.492-3.089,10.147c1.35,2.531,3.943,3.973,6.625,3.973c1.19,0,2.399-0.284,3.522-0.883    c12.79-6.819,23.317-6.19,28.917-5.012v36.448c-16.212,2.685-30.722,11.406-40.702,24.442c-3.629-4.925-8.67-8.611-14.595-10.577    c-7.125-2.364-14.715-1.979-21.526,1.061v-95.391c0-8.901-7.212-16.173-16.077-16.21c-0.045,0-0.09,0-0.135,0    c-8.304,0-16.119,3.23-22.017,9.104c-5.931,5.906-9.197,13.759-9.197,22.111v16.013h-69.707c-3.923,0-7.115-3.191-7.115-7.114    v-8.899c0-29.007,11.385-56.257,32.058-76.729c20.668-20.468,48.001-31.57,77.05-31.303c20.561,0.2,39.985,7.065,56.174,19.853    c3.25,2.567,7.966,2.015,10.534-1.236c2.567-3.25,2.014-7.967-1.236-10.534C299.559,8.22,276.97,0.238,253.055,0.006    c-33.042-0.32-64.216,12.338-87.751,35.645c-23.539,23.312-36.502,54.347-36.502,87.387v8.899c0,4.382,1.286,8.467,3.494,11.907    v221.737c0,4.142,3.358,7.5,7.5,7.5s7.5-3.358,7.5-7.5V153.75c1.179,0.195,2.387,0.301,3.621,0.301h36.525l0.004,294.797h-9.07    h-31.08v-49.09c0-4.142-3.358-7.5-7.5-7.5s-7.5,3.358-7.5,7.5v49.09h-4.897c-24.64,0-44.686,20.046-44.686,44.686v1.936    c0,9.111,7.412,16.523,16.523,16.523h123.075c11.62,0,21.074-9.454,21.074-21.074v-25.547c0-5.853-3.067-10.991-7.67-13.928    l-0.092-328.405c0-4.334,1.698-8.412,4.782-11.482c3.066-3.054,7.125-4.733,11.435-4.733c0.023,0,0.046,0,0.07,0    c0.618,0.002,1.14,0.557,1.14,1.21V215.66c0,0.705,0.104,1.385,0.286,2.031c-3.894,8.065-4.148,17.784,0.169,26.389    c46.604,92.861,4.641,227.601,4.214,228.942c-5.021,15.655,3.628,32.49,19.279,37.528c3.011,0.969,6.1,1.449,9.174,1.449    c4.674,0,9.315-1.111,13.594-3.307c1.204-0.618,2.349-1.314,3.442-2.073c2.426,1.688,5.106,3.021,7.931,3.931    c3.011,0.969,6.1,1.449,9.174,1.449c4.674,0,9.315-1.111,13.594-3.307c7.093-3.64,12.344-9.824,14.785-17.414    c0.517-1.607,5.187-16.354,9.919-38.99c0.848-4.055-1.752-8.028-5.807-8.876c-4.053-0.849-8.028,1.752-8.876,5.807    c-4.575,21.886-9.023,35.936-9.516,37.466c-1.214,3.775-3.826,6.851-7.354,8.662c-3.528,1.811-7.549,2.138-11.324,0.924    c-0.954-0.307-1.848-0.72-2.701-1.196c0.584-1.221,1.095-2.486,1.517-3.797c0.786-2.442,13.036-41.162,18.308-93.458    c7.259-0.539,14.004-2.946,19.753-6.75c-0.722,8.087-1.655,16.262-2.806,24.465c-0.575,4.102,2.284,7.894,6.386,8.469    c0.354,0.05,0.704,0.074,1.051,0.074c3.68,0,6.892-2.711,7.418-6.459c2.245-16.009,3.711-31.932,4.357-47.326    c0.005-0.116-0.003-0.23-0.003-0.346c1.467-4.245,2.275-8.795,2.275-13.532c0-4.186-0.651-8.331-1.878-12.297    c28.509-2.401,52.58-25.803,59.458-58.578C430.071,279.816,428.649,273.932,424.969,269.398z M194.592,490.916    c0,3.349-2.725,6.074-6.074,6.074H99.237v0.001c-0.84,0-1.523-0.683-1.523-1.523v-1.936c0-16.369,13.317-29.686,29.686-29.686    h65.669c0.84,0,1.523,0.683,1.523,1.523V490.916z M202.44,154.051h18.27l0.005,294.797h-18.271L202.44,154.051z M228.385,490.917    c0,3.349-2.725,6.074-6.074,6.074H208.69c0.581-1.925,0.901-3.962,0.901-6.074V465.37c0-0.514-0.031-1.021-0.077-1.523h17.348    c0.84,0,1.523,0.683,1.523,1.523V490.917z M300.272,486.686c-1.214,3.775-3.826,6.851-7.354,8.662    c-3.528,1.811-7.551,2.138-11.324,0.924c-7.786-2.506-12.089-10.881-9.59-18.674c0.45-1.405,44.387-141.656-5.092-240.246    c-3.672-7.317-0.707-16.257,6.609-19.929c2.098-1.053,4.364-1.585,6.645-1.585c1.572,0,3.152,0.253,4.688,0.762    c3.764,1.249,6.817,3.888,8.596,7.433c12.211,24.329,20.354,52.518,24.203,83.783    C328.638,397.085,301.436,483.069,300.272,486.686z M311.996,228.302c8.789-15.883,25.346-25.689,43.571-25.689    c27.45,0,49.782,22.332,49.782,49.782c0,3.343-0.331,6.663-0.986,9.909h-80.395C320.68,250.394,316.687,239.041,311.996,228.302z     M334.155,382.578c0.872-12.618,1.278-25.843,0.993-39.399c3.755,0.76,7.571,1.157,11.421,1.157h6.805    c1.903,3.717,2.915,7.866,2.915,12.079C356.289,369.548,346.699,380.476,334.155,382.578z M414.188,282.462    c-5.791,27.6-26.197,46.876-49.624,46.876h-17.996c-4.086,0-8.126-0.594-12.054-1.751c-0.438-7.154-1.087-14.368-1.977-21.603    c-1.212-9.85-2.843-19.412-4.867-28.68h33.536v4.394c0,4.142,3.358,7.5,7.5,7.5c4.142,0,7.5-3.358,7.5-7.5v-4.394h5v13.023    c0,4.142,3.358,7.5,7.5,7.5s7.5-3.358,7.5-7.5v-13.023h13.861c1.738,0,2.786,0.971,3.256,1.55    C413.805,279.446,414.557,280.704,414.188,282.462z" fill="#ff3b3f" data-original="#000000" style=""/>
	</g>
</g>
<g xmlns="http://www.w3.org/2000/svg">
	<g>
		<path d="M386.753,232.767h-0.093c-4.142,0-7.454,3.358-7.454,7.5s3.405,7.5,7.547,7.5s7.5-3.358,7.5-7.5    S390.895,232.767,386.753,232.767z" fill="#ff3b3f" data-original="#000000" style=""/>
	</g>
</g>
<g xmlns="http://www.w3.org/2000/svg">
</g>
<g xmlns="http://www.w3.org/2000/svg">
</g>
<g xmlns="http://www.w3.org/2000/svg">
</g>
<g xmlns="http://www.w3.org/2000/svg">
</g>
<g xmlns="http://www.w3.org/2000/svg">
</g>
<g xmlns="http://www.w3.org/2000/svg">
</g>
<g xmlns="http://www.w3.org/2000/svg">
</g>
<g xmlns="http://www.w3.org/2000/svg">
</g>
<g xmlns="http://www.w3.org/2000/svg">
</g>
<g xmlns="http://www.w3.org/2000/svg">
</g>
<g xmlns="http://www.w3.org/2000/svg">
</g>
<g xmlns="http://www.w3.org/2000/svg">
</g>
<g xmlns="http://www.w3.org/2000/svg">
</g>
<g xmlns="http://www.w3.org/2000/svg">
</g>
<g xmlns="http://www.w3.org/2000/svg">
</g>
</g></svg>
