<?xml version="1.0"?>
<svg xmlns="http://www.w3.org/2000/svg" xmlns:xlink="http://www.w3.org/1999/xlink" xmlns:svgjs="http://svgjs.com/svgjs" version="1.1" width="512" height="512" x="0" y="0" viewBox="0 0 512 512" style="enable-background:new 0 0 512 512" xml:space="preserve" class=""><g><path xmlns="http://www.w3.org/2000/svg" d="m390 0h-320c-38.597656 0-70 31.402344-70 70v77c0 5.523438 4.476562 10 10 10s10-4.476562 10-10v-77c0-24.144531 17.203125-44.347656 40-48.992188v390.992188h-10c-11.246094 0-21.636719 3.734375-30 10.027344v-195.027344c0-5.523438-4.476562-10-10-10s-10 4.476562-10 10v235c0 27.621094 22.375 50 50 50h340c16.542969 0 30-13.457031 30-30 0-17.71875 0-436.140625 0-452 0-16.542969-13.457031-30-30-30zm-310 20h310c5.515625 0 10 4.484375 10 10v382h-320zm320 462c0 5.515625-4.484375 10-10 10h-340c-16.566406 0-30-13.429688-30-30 0-16.542969 13.457031-30 30-30h350zm0 0" fill="#ff3b3f" data-original="#000000" style=""/><path xmlns="http://www.w3.org/2000/svg" d="m330 186c0-49.625-40.375-90-90-90s-90 40.375-90 90c0 36.796875 46.652344 100.8125 69.234375 130h-49.234375c-5.523438 0-10 4.476562-10 10s4.476562 10 10 10h140c5.523438 0 10-4.476562 10-10s-4.476562-10-10-10h-49.234375c22.488281-29.066406 69.234375-93.167969 69.234375-130zm-160 0c0-38.597656 31.402344-70 70-70s70 31.402344 70 70c0 29.765625-45.109375 92.769531-70 124.136719-24.890625-31.367188-70-94.371094-70-124.136719zm0 0" fill="#ff3b3f" data-original="#000000" style=""/><path xmlns="http://www.w3.org/2000/svg" d="m280 186c0-22.054688-17.945312-40-40-40s-40 17.945312-40 40 17.945312 40 40 40 40-17.945312 40-40zm-60 0c0-11.027344 8.972656-20 20-20s20 8.972656 20 20-8.972656 20-20 20-20-8.972656-20-20zm0 0" fill="#ff3b3f" data-original="#000000" style=""/><path xmlns="http://www.w3.org/2000/svg" d="m60 462c0 5.523438 4.476562 10 10 10h280c5.523438 0 10-4.476562 10-10s-4.476562-10-10-10h-280c-5.523438 0-10 4.476562-10 10zm0 0" fill="#ff3b3f" data-original="#000000" style=""/><path xmlns="http://www.w3.org/2000/svg" d="m10 197c5.519531 0 10-4.480469 10-10s-4.480469-10-10-10-10 4.480469-10 10 4.480469 10 10 10zm0 0" fill="#ff3b3f" data-original="#000000" style=""/></g></svg>
