<?xml version="1.0"?>
<svg xmlns="http://www.w3.org/2000/svg" xmlns:xlink="http://www.w3.org/1999/xlink" xmlns:svgjs="http://svgjs.com/svgjs" version="1.1" width="512" height="512" x="0" y="0" viewBox="0 0 512 512" style="enable-background:new 0 0 512 512" xml:space="preserve" class=""><g><path xmlns="http://www.w3.org/2000/svg" d="m384 267.6792v-153.73779a89.354 89.354 0 0 0 -26.34326-63.59864 8.00182 8.00182 0 0 0 -11.31348 0 89.322 89.322 0 0 0 -24.14856 43.82788l-35.22253-60.38159a35.857 35.857 0 0 0 -61.94434 0l-35.22253 60.38159a89.322 89.322 0 0 0 -24.14856-43.82788 8.00182 8.00182 0 0 0 -11.31348 0 89.354 89.354 0 0 0 -26.34326 63.59864v153.73779l-30.34082 39.44287a7.99749 7.99749 0 0 0 -1.65918 4.87793v24a8.00008 8.00008 0 0 0 8 8h24v40a8.00008 8.00008 0 0 0 8 8h8v64h16v-64h16v40h16v-30.11133l.84473 1.68945a7.99967 7.99967 0 0 0 7.15527 4.42188h11.50854a63.04664 63.04664 0 0 0 18.7024 68.43164l20.58252 17.64258a8.00109 8.00109 0 0 0 10.41308 0l20.582-17.64258a63.04621 63.04621 0 0 0 18.70292-68.43164h11.50854a7.99967 7.99967 0 0 0 7.15527-4.42188l.84473-1.68945v30.11133h16v-40h16v64h16v-64h8a8.00008 8.00008 0 0 0 8-8v-40h24a8.00008 8.00008 0 0 0 8-8v-24a7.99749 7.99749 0 0 0 -1.65918-4.87793zm-48-62.3999v-61.2793h32v102.87915zm0-91.33789a73.38718 73.38718 0 0 1 16-45.95215 73.38718 73.38718 0 0 1 16 45.95215v14.05859h-32zm-97.15186-72.08985a19.85673 19.85673 0 0 1 34.30372 0l12.91992 22.14844h-60.14356zm-78.84814 26.1377a73.38718 73.38718 0 0 1 16 45.95215v14.05859h-32v-14.05859a73.38718 73.38718 0 0 1 16-45.95215zm-16 76.01074h32v61.2793l-32 41.59985zm-32 170.7207 78.34082-101.84277a7.99749 7.99749 0 0 0 1.65918-4.87793v-85.83691l24.595-42.16309h78.81l24.595 42.16309v237.83691h-56v-32h-16v32h-56v-88h-16v56h-64zm64 29.2793v24a7.954 7.954 0 0 0 .85083 3.5752l-.0061.00292 2.21093 4.42188h-35.05566v-32zm20.94434 32h51.05566v16h-43.05566zm74.43166 88.2832-15.376 13.17969-15.37646-13.17969a47.09992 47.09992 0 0 1 -11.85547-56.2832h19.23193v32h16v-32h19.23193a47.0994 47.0994 0 0 1 -11.85593 56.2832zm35.67966-72.2832h-43.05566v-16h51.05566zm60.94434-16h-35.05566l2.21093-4.42188-.0061-.00292a7.954 7.954 0 0 0 .85083-3.5752v-24h32zm32-48h-64v-96.479l64 83.1997z" fill="#ff3b3f" data-original="#000000" style=""/><path xmlns="http://www.w3.org/2000/svg" d="m232 120h48a8 8 0 0 0 0-16h-48a8 8 0 0 0 0 16z" fill="#ff3b3f" data-original="#000000" style=""/><path xmlns="http://www.w3.org/2000/svg" d="m32 336h16v104h-16z" fill="#ff3b3f" data-original="#000000" style=""/><path xmlns="http://www.w3.org/2000/svg" d="m32 456h16v24h-16z" fill="#ff3b3f" data-original="#000000" style=""/><path xmlns="http://www.w3.org/2000/svg" d="m64 288h16v80h-16z" fill="#ff3b3f" data-original="#000000" style=""/><path xmlns="http://www.w3.org/2000/svg" d="m64 384h16v24h-16z" fill="#ff3b3f" data-original="#000000" style=""/><path xmlns="http://www.w3.org/2000/svg" d="m464 336h16v104h-16z" fill="#ff3b3f" data-original="#000000" style=""/><path xmlns="http://www.w3.org/2000/svg" d="m464 456h16v24h-16z" fill="#ff3b3f" data-original="#000000" style=""/><path xmlns="http://www.w3.org/2000/svg" d="m432 288h16v80h-16z" fill="#ff3b3f" data-original="#000000" style=""/><path xmlns="http://www.w3.org/2000/svg" d="m432 384h16v24h-16z" fill="#ff3b3f" data-original="#000000" style=""/><path xmlns="http://www.w3.org/2000/svg" d="m72 144v-16h16v-16h-16v-16h-16v16h-16v16h16v16z" fill="#ff3b3f" data-original="#000000" style=""/><path xmlns="http://www.w3.org/2000/svg" d="m440 138.947h-16v18.527h-16v16h16v18.526h16v-18.526h16v-16h-16z" fill="#ff3b3f" data-original="#000000" style=""/><path xmlns="http://www.w3.org/2000/svg" d="m88 168h24v16h-24z" fill="#ff3b3f" data-original="#000000" style=""/><path xmlns="http://www.w3.org/2000/svg" d="m16 192h24v16h-24z" fill="#ff3b3f" data-original="#000000" style=""/><path xmlns="http://www.w3.org/2000/svg" d="m72 232h24v16h-24z" fill="#ff3b3f" data-original="#000000" style=""/><path xmlns="http://www.w3.org/2000/svg" d="m408 69.053h24v16h-24z" fill="#ff3b3f" data-original="#000000" style=""/><path xmlns="http://www.w3.org/2000/svg" d="m432 16h24v16h-24z" fill="#ff3b3f" data-original="#000000" style=""/><path xmlns="http://www.w3.org/2000/svg" d="m472 69.053h24v16h-24z" fill="#ff3b3f" data-original="#000000" style=""/><path xmlns="http://www.w3.org/2000/svg" d="m144 472h16v16h-16z" fill="#ff3b3f" data-original="#000000" style=""/><path xmlns="http://www.w3.org/2000/svg" d="m176 448h16v16h-16z" fill="#ff3b3f" data-original="#000000" style=""/><path xmlns="http://www.w3.org/2000/svg" d="m352 472h16v16h-16z" fill="#ff3b3f" data-original="#000000" style=""/><path xmlns="http://www.w3.org/2000/svg" d="m320 448h16v16h-16z" fill="#ff3b3f" data-original="#000000" style=""/></g></svg>
