<?xml version="1.0"?>
<svg xmlns="http://www.w3.org/2000/svg" xmlns:xlink="http://www.w3.org/1999/xlink" xmlns:svgjs="http://svgjs.com/svgjs" version="1.1" width="512" height="512" x="0" y="0" viewBox="0 0 480 480" style="enable-background:new 0 0 512 512" xml:space="preserve"><g><path xmlns="http://www.w3.org/2000/svg" d="m480 80v-16h-320c-8.832031.011719-15.988281 7.167969-16 16h-32v-24c0-30.929688-25.070312-56-56-56s-56 25.070312-56 56v144c0 30.929688 25.070312 56 56 56s56-25.070312 56-56v-104h32c.011719 8.832031 7.167969 15.988281 16 16h320v-16h-280v-16zm-464-24c0-22.089844 17.910156-40 40-40s40 17.910156 40 40v40h-80zm80 144c0 22.089844-17.910156 40-40 40s-40-17.910156-40-40v-88h80zm88-104h-24v-16h24zm0 0" fill="#ff3b3f" data-original="#000000" style=""/><path xmlns="http://www.w3.org/2000/svg" d="m32 192h16v16h-16zm0 0" fill="#ff3b3f" data-original="#000000" style=""/><path xmlns="http://www.w3.org/2000/svg" d="m64 192h16v16h-16zm0 0" fill="#ff3b3f" data-original="#000000" style=""/><path xmlns="http://www.w3.org/2000/svg" d="m32 160h16v16h-16zm0 0" fill="#ff3b3f" data-original="#000000" style=""/><path xmlns="http://www.w3.org/2000/svg" d="m64 160h16v16h-16zm0 0" fill="#ff3b3f" data-original="#000000" style=""/><path xmlns="http://www.w3.org/2000/svg" d="m32 128h16v16h-16zm0 0" fill="#ff3b3f" data-original="#000000" style=""/><path xmlns="http://www.w3.org/2000/svg" d="m64 128h16v16h-16zm0 0" fill="#ff3b3f" data-original="#000000" style=""/><path xmlns="http://www.w3.org/2000/svg" d="m432 152v304c-.003906 4.417969-3.582031 7.996094-8 8h-80c-4.417969-.003906-7.996094-3.582031-8-8v-24c13.25-.015625 23.984375-10.75 24-24v-32h8c13.25-.015625 23.984375-10.75 24-24v-64c8.832031-.011719 15.988281-7.167969 16-16v-8c0-75.109375-60.890625-136-136-136s-136 60.890625-136 136v8c.011719 8.832031 7.167969 15.988281 16 16v64c.015625 13.25 10.75 23.984375 24 24h8v32c.015625 13.25 10.75 23.984375 24 24h16c13.25-.015625 23.984375-10.75 24-24v-80c-.015625-13.25-10.75-23.984375-24-24h-16c-13.25.015625-23.984375 10.75-24 24v32h-8c-4.417969-.003906-7.996094-3.582031-8-8v-64h8c13.25-.015625 23.984375-10.75 24-24 0-39.765625 32.234375-72 72-72s72 32.234375 72 72c.015625 13.25 10.75 23.984375 24 24h8v64c-.003906 4.417969-3.582031 7.996094-8 8h-8v-32c-.015625-13.25-10.75-23.984375-24-24h-16c-13.25.015625-23.984375 10.75-24 24v80c.015625 13.25 10.75 23.984375 24 24v24c.015625 13.25 10.75 23.984375 24 24h80c13.25-.015625 23.984375-10.75 24-24v-304c.003906-4.417969 3.582031-7.996094 8-8h24v-16h-24c-13.25.015625-23.984375 10.75-24 24zm-232 176c.003906-4.417969 3.582031-7.996094 8-8h16c4.417969.003906 7.996094 3.582031 8 8v80c-.003906 4.417969-3.582031 7.996094-8 8h-16c-4.417969-.003906-7.996094-3.582031-8-8zm160-64c0-48.601562-39.398438-88-88-88s-88 39.398438-88 88c-.003906 4.417969-3.582031 7.996094-8 8h-24v-8c0-66.273438 53.726562-120 120-120s120 53.726562 120 120v8h-24c-4.417969-.003906-7.996094-3.582031-8-8zm-48 144v-80c.003906-4.417969 3.582031-7.996094 8-8h16c4.417969.003906 7.996094 3.582031 8 8v80c-.003906 4.417969-3.582031 7.996094-8 8h-16c-4.417969-.003906-7.996094-3.582031-8-8zm0 0" fill="#ff3b3f" data-original="#000000" style=""/></g></svg>
