<?xml version="1.0"?>
<svg xmlns="http://www.w3.org/2000/svg" xmlns:xlink="http://www.w3.org/1999/xlink" xmlns:svgjs="http://svgjs.com/svgjs" version="1.1" width="512" height="512" x="0" y="0" viewBox="0 0 512 512" style="enable-background:new 0 0 512 512" xml:space="preserve" class=""><g><g xmlns="http://www.w3.org/2000/svg"><path d="m478.776 31.67h-445.552c-18.319 0-33.224 14.905-33.224 33.225v20.031c0 4.137 3.353 7.49 7.49 7.49s7.49-3.353 7.49-7.49v-20.031c0-10.061 8.184-18.245 18.245-18.245h445.551c10.061 0 18.245 8.184 18.245 18.245v222.027h-226.878v-12.989c2.462-2.355 4.8-4.84 6.969-7.472 2.067.99 6.271 2.411 10.473 2.412 17.179 0 31.327-20.354 32.732-39.441.889-12.072-3.841-19.389-7.967-23.401-4.026-3.915-9.392-6.571-15.691-7.853v-38.171c0-5.892 1.439-11.942 4.163-17.493 3.546-7.227 5.344-14.995 5.344-23.088 0-24.195-16.324-45.15-39.695-50.958-4.593-1.139-9.432 1.119-11.498 5.38-4.723 9.757-14.384 15.818-25.212 15.818h-55.461c-29.654.001-53.779 24.127-53.779 53.78v54.523c-6.785 1.184-12.55 3.916-16.812 8.061-4.125 4.012-8.856 11.329-7.967 23.401 1.406 19.088 15.553 39.441 32.733 39.441 3.172-.039 6.975-.713 11.255-2.843 1.941 2.387 4.004 4.669 6.187 6.834v36.417c-37.299 1.416-71.19 16.353-96.904 40.047h-15.79c-10.061 0-18.245-8.184-18.245-18.245v-29.182h102.49c4.137 0 7.49-3.353 7.49-7.49s-3.353-7.49-7.49-7.49h-102.488v-169.506c0-4.137-3.353-7.49-7.49-7.49s-7.49 3.353-7.49 7.49v213.669c0 18.32 14.905 33.224 33.224 33.224h1.578c-21.728 26.26-34.802 59.93-34.802 96.597 0 10.711 8.715 19.426 19.426 19.426h250.649c4.137 0 7.49-3.353 7.49-7.49s-3.353-7.49-7.49-7.49h-250.649c-2.452 0-4.446-1.994-4.446-4.446 0-75.413 61.353-136.766 136.766-136.766h112.568c75.413 0 136.766 61.353 136.766 136.766 0 2.452-1.994 4.446-4.446 4.446h-92.964c-4.137 0-7.49 3.353-7.49 7.49s3.353 7.49 7.49 7.49h92.964c10.711 0 19.426-8.715 19.426-19.426 0-36.667-13.074-70.337-34.802-96.596h97.518c18.32 0 33.224-14.905 33.224-33.224v-266.189c0-18.32-14.905-33.225-33.224-33.225zm-176.871 185.1c2.678 2.604 3.845 6.494 3.473 11.562-.939 12.747-10.534 26.121-18.294 25.542-.468-.034-.882-.097-1.273-.171 6.652-11.903 10.537-25.543 10.807-40.058 2.132.753 3.922 1.797 5.287 3.125zm-172.93 37.104c-7.814.583-17.354-12.796-18.294-25.542-.373-5.068.795-8.959 3.473-11.562 1.597-1.554 3.766-2.728 6.399-3.489.209 14.551 4.052 28.234 10.676 40.179-.635.197-1.37.349-2.254.414zm126.188 55.284h-94.266v-24.433c13.161 8.238 28.696 13.019 45.335 13.019h4.716c16.165 0 31.297-4.503 44.214-12.313v23.727zm-44.214-26.393h-4.716c-39.002 0-70.731-31.729-70.731-70.731v-68.587c0-21.394 17.405-38.8 38.799-38.801h55.462c14.953 0 28.922-7.95 36.666-20.564 14.749 5.267 24.759 19.308 24.759 35.344 0 5.785-1.282 11.333-3.813 16.489-3.725 7.594-5.694 15.925-5.694 24.091v52.027c-.001 39.003-31.73 70.732-70.732 70.732zm286.071 48.318c0 10.061-8.184 18.245-18.245 18.245h-111.73c-25.713-23.694-59.604-38.631-96.903-40.047v-7.38h226.878z" fill="#ff3b3f" data-original="#000000" style="" class=""/><path d="m388.87 212.004 49.832-28.771c4.534-2.618 7.239-7.306 7.239-12.541 0-5.234-2.705-9.922-7.239-12.54l-49.832-28.77c-4.535-2.618-9.947-2.618-14.48 0-4.534 2.618-7.24 7.306-7.24 12.541v57.541c.226 7.193 5.571 14.25 14.479 14.503 2.487 0 4.974-.655 7.241-1.963zm-6.741-69.217 48.334 27.906-48.334 27.905z" fill="#ff3b3f" data-original="#000000" style="" class=""/></g></g></svg>
