<?xml version="1.0"?>
<svg xmlns="http://www.w3.org/2000/svg" xmlns:xlink="http://www.w3.org/1999/xlink" xmlns:svgjs="http://svgjs.com/svgjs" version="1.1" width="512" height="512" x="0" y="0" viewBox="0 0 511.112 511.112" style="enable-background:new 0 0 512 512" xml:space="preserve" class=""><g><g xmlns="http://www.w3.org/2000/svg"><path d="m26.087 435.68c-3.935-1.293-8.173.854-9.464 4.788-3.98 12.135-5.999 24.744-5.999 37.477v25.147c0 4.143 3.358 7.5 7.5 7.5s7.5-3.357 7.5-7.5v-25.147c0-11.142 1.767-22.178 5.252-32.801 1.29-3.936-.854-8.173-4.789-9.464z" fill="#ff3b3f" data-original="#000000" style="" class=""/><path d="m118.426 467.178h-61.778c-7.015 0-12.723 5.707-12.723 12.723v15.968c0 7.016 5.708 12.723 12.723 12.723h61.778c7.015 0 12.723-5.707 12.723-12.723v-15.969c-.001-7.015-5.708-12.722-12.723-12.722zm-2.278 26.413h-57.223v-11.413h57.223z" fill="#ff3b3f" data-original="#000000" style="" class=""/><path d="m173.205 188.315c0-.937-.049-1.863-.124-2.781 4.318-1.318 8.267-1.415 12.017-.285-.092 1.011-.146 2.032-.146 3.067 0 18.541 15.083 33.625 33.624 33.625s33.625-15.084 33.625-33.625c0-18.54-15.084-33.624-33.625-33.624-12.206 0-22.912 6.539-28.804 16.297-6.727-2.122-13.828-2.033-21.235.265-5.858-9.903-16.641-16.562-28.957-16.562-18.541 0-33.624 15.084-33.624 33.624 0 18.541 15.083 33.625 33.624 33.625s33.625-15.085 33.625-33.626zm45.371-18.624c10.27 0 18.625 8.354 18.625 18.624s-8.355 18.625-18.625 18.625-18.624-8.355-18.624-18.625 8.354-18.624 18.624-18.624zm-78.996 37.249c-10.27 0-18.624-8.355-18.624-18.625s8.354-18.624 18.624-18.624 18.625 8.354 18.625 18.624-8.355 18.625-18.625 18.625z" fill="#ff3b3f" data-original="#000000" style="" class=""/><path d="m456.032 284.362c-3.204-2.625-7.93-2.157-10.555 1.047s-2.157 7.929 1.047 10.555c26.29 21.545 41.367 53.37 41.367 87.315 0 62.217-50.617 112.833-112.833 112.833s-112.833-50.616-112.833-112.833 50.617-112.834 112.833-112.834c15.979 0 31.426 3.275 45.912 9.736 3.784 1.688 8.217-.012 9.904-3.795s-.012-8.217-3.795-9.904c-16.421-7.323-33.923-11.037-52.021-11.037-7.916 0-15.664.729-23.185 2.113-1.148-25.943-7.709-51.686-19.196-74.983l-17.873-36.249c-6.76-13.71-11.706-29.007-14.701-45.464-10.638-58.443-60.324-100.862-118.144-100.862h-3.626c-35.51 0-69.009 16.044-91.908 44.019-2.624 3.206-2.152 7.931 1.053 10.555 3.205 2.622 7.931 2.151 10.554-1.053 20.038-24.481 49.307-38.521 80.3-38.521h3.626c50.568 0 94.047 37.24 103.385 88.548 3.245 17.828 8.63 34.452 16.006 49.411l17.873 36.249c11.016 22.343 17.118 47.129 17.78 72.021-43.507 13.594-77.089 49.863-86.868 94.905l-21.994-9.649v-30.146c27.72-17.095 45.947-46.86 48.068-79.888 16.729-3.069 29.451-17.747 29.451-35.35 0-17.524-12.607-32.15-29.225-35.309v-18.285c0-7.329-5.472-13.631-12.729-14.657l-27.182-3.845c-29.795-4.214-56.959-19.144-76.487-42.039-2.363-2.771-5.796-4.257-9.439-4.068-3.636.184-6.909 2.007-8.979 5.002l-13.862 20.053c-8.576 12.406-21.159 21.924-35.431 26.798 0 0-.001.001-.001.001-5.064 1.73-8.466 6.488-8.466 11.839v19.022c-17.111 2.75-30.225 17.614-30.225 35.488 0 17.962 13.243 32.889 30.478 35.532 2.233 32.475 20.002 61.698 47.041 78.798v31.054l-48.567 21.307c-6.453 2.831-12.612 6.212-18.422 10.089l-5.256-6.861c-19.648-25.65-31.701-56.205-34.855-88.361s2.73-64.471 17.019-93.45l17.873-36.249c7.376-14.96 12.761-31.584 16.005-49.411 1.524-8.374 4.021-16.574 7.42-24.371 1.655-3.797-.081-8.217-3.877-9.872-3.799-1.657-8.217.081-9.873 3.878-3.861 8.855-6.696 18.169-8.428 27.68-2.995 16.457-7.941 31.753-14.701 45.464l-17.873 36.249c-15.527 31.49-21.922 66.605-18.494 101.548 3.428 34.942 16.525 68.146 37.876 96.018l5.239 6.84c-7.693 6.659-14.56 14.291-20.395 22.768-2.349 3.411-1.487 8.081 1.925 10.43 1.299.895 2.78 1.323 4.246 1.323 2.385 0 4.73-1.136 6.185-3.249 10.002-14.534 23.439-26.255 39.087-34.194l27.935 37.107v9.213c0 1.808.653 3.554 1.838 4.919l61.425 70.71c1.467 1.688 3.551 2.581 5.666 2.581 1.297 0 2.605-.336 3.789-1.029.692-.405 1.292-.912 1.802-1.484v.002c.022-.024.046-.045.067-.07l61.425-70.71c1.185-1.365 1.838-3.111 1.838-4.919v-9.167l2.824-3.667c15.016 53.899 64.541 93.565 123.162 93.565 70.488 0 127.833-57.346 127.833-127.833.001-38.457-17.079-74.511-46.858-98.917zm-165.372-83.26c0 9.198-5.966 17.012-14.225 19.822v-39.644c8.258 2.81 14.225 10.624 14.225 19.822zm-222.028 0c0-9.565 6.451-17.635 15.225-20.134v40.269c-8.774-2.5-15.225-10.57-15.225-20.135zm30.225 28.589v-81.341c16.594-6.065 31.187-17.329 41.237-31.868l11.411-16.508c21.658 23.831 50.937 39.36 82.917 43.883l27.012 3.821v82.301c0 36.35-22.983 69.031-57.19 81.325l-3.5 1.258c-12.923 4.645-27.168 4.673-40.11.082l-4.253-1.509c-34.406-12.205-57.524-44.936-57.524-81.444zm52.509 95.581 4.253 1.509c8.05 2.856 16.501 4.283 24.954 4.283 8.554 0 17.109-1.463 25.245-4.387l3.5-1.258c1.288-.463 2.562-.952 3.823-1.464v23.453l-30.38 20.606c-1.928 1.308-4.42 1.308-6.346-.004l-30.264-20.595v-24.178c1.716.719 3.448 1.409 5.215 2.035zm-25.145 102.306v-8.918c0-1.627-.529-3.211-1.508-4.511l-27.424-36.428 26.399-11.582 35.86 99.802zm11.235-67.479.408-.179 30.112 20.492c3.527 2.4 7.57 3.601 11.615 3.601 4.034 0 8.069-1.194 11.59-3.583l30.241-20.512 1.278.561-42.554 118.433zm98.173 53.984c-1.011 1.312-1.559 2.921-1.559 4.577v8.918l-33.326 38.363 35.723-99.422 11.305 4.96c-.357 3.887-.55 7.822-.55 11.801 0 4.956.293 9.844.845 14.655z" fill="#ff3b3f" data-original="#000000" style="" class=""/><path d="m434.207 347.279c-8.562-8.563-19.944-13.277-32.052-13.277-9.898 0-19.313 3.151-27.097 8.98-7.784-5.829-17.199-8.98-27.098-8.98-12.107 0-23.49 4.715-32.052 13.276-12.817 12.817-16.315 31.561-10.484 47.623h-13.664c-4.142 0-7.5 3.357-7.5 7.5s3.358 7.5 7.5 7.5h22.748c.38.416.76.833 1.158 1.237l41.685 42.322c4.708 4.78 10.997 7.413 17.707 7.413 6.709 0 12.998-2.633 17.706-7.413l41.685-42.322c1.913-1.942 3.601-4.022 5.091-6.2h27.054c4.142 0 7.5-3.357 7.5-7.5s-3.358-7.5-7.5-7.5h-20.405c3.535-14.841-.467-31.144-11.982-42.659zm-107.692 10.606c5.729-5.728 13.345-8.883 21.445-8.883 8.101 0 15.717 3.155 21.449 8.887l.349.349c2.93 2.928 7.676 2.924 10.603-.003l.349-.35c5.729-5.728 13.345-8.883 21.445-8.883 8.101 0 15.717 3.155 21.446 8.884 8.626 8.625 10.942 21.264 6.944 32.053h-29.887l-7.29-20.628c-1.082-3.063-4.036-5.07-7.255-4.999-3.246.08-6.071 2.239-7.001 5.35l-8.913 29.808-10.012-20.483c-1.284-2.625-3.988-4.273-6.897-4.204-2.922.062-5.542 1.815-6.713 4.493l-6.834 15.627h-17.798c-6.953-11.65-5.422-27.026 4.57-37.018zm55.562 85.051c-1.867 1.895-4.36 2.938-7.02 2.938s-5.153-1.044-7.02-2.938l-32.537-33.034h9.147c2.98 0 5.677-1.765 6.872-4.495l2.307-5.274 11.322 23.164c1.266 2.588 3.89 4.206 6.736 4.206.205 0 .411-.008.617-.025 3.078-.253 5.686-2.367 6.571-5.326l7.819-26.149 1.391 3.937c1.059 2.997 3.893 5.001 7.071 5.001h24.149z" fill="#ff3b3f" data-original="#000000" style="" class=""/></g></g></svg>
