<?xml version="1.0"?>
<svg xmlns="http://www.w3.org/2000/svg" xmlns:xlink="http://www.w3.org/1999/xlink" xmlns:svgjs="http://svgjs.com/svgjs" version="1.1" width="512" height="512" x="0" y="0" viewBox="0 0 512.026 512.026" style="enable-background:new 0 0 512 512" xml:space="preserve" class=""><g><g xmlns="http://www.w3.org/2000/svg"><g><path d="m492.013 452.026h-26.001v-170.007h10.001c5.522 0 10-4.477 10-10v-30c0-11.028-8.972-20-20-20h-3.23l-37.486-93.714c-1.52-3.797-5.196-6.286-9.285-6.286h-89.976c10.93-13.031 22.546-30.228 27.51-48.784 5.942-22.211 1.074-41.935-14.077-57.039-21.662-21.595-56.913-21.595-78.577 0-3.203 3.192-7.33 2.416-9.755.001-21.664-21.595-56.915-21.595-78.577 0-15.152 15.104-20.02 34.827-14.078 57.039 4.964 18.557 16.58 35.753 27.51 48.784h-89.976c-4.089 0-7.766 2.489-9.285 6.286l-37.487 93.714h-3.231c-11.028 0-20 8.972-20 20v30c0 5.523 4.478 10 10 10h10.001v170.007h-26.001c-11.028 0-20 8.972-20 20v30c0 5.523 4.478 10 10 10h492c5.522 0 10-4.477 10-10v-30c0-11.029-8.972-20.001-20-20.001zm-305.335-421.665c6.939-6.917 16.054-10.375 25.169-10.375s18.23 3.458 25.17 10.376c10.651 10.619 27.34 10.619 37.993 0 13.879-13.834 36.46-13.834 50.339 0 10.073 10.042 12.977 22.375 8.876 37.705-10.253 38.326-57.858 77.466-78.212 85.117-20.354-7.651-67.959-46.791-78.211-85.117-4.102-15.331-1.198-27.664 8.876-37.706zm-107.47 170.6h32.224c5.522 0 10-4.477 10-10s-4.478-10-10-10h-24.223l15.578-38.942h102.33c17.252 15.894 35.806 27.985 48.316 31.327.845.226 1.713.338 2.58.338s1.735-.113 2.58-.338c12.51-3.342 31.064-15.433 48.316-31.327h102.331l32.001 80h-370.456zm-33.195 41.058h420v20h-420zm20.001 40h379.998v170.007h-134.999v-130.005c0-11.028-8.972-20-20-20h-70c-11.028 0-20 8.972-20 20v130.005h-134.999zm154.999 170.006v-60.002h5c5.522 0 10-4.477 10-10s-4.478-10-10-10h-5v-50.002h70v130.005l-70-.001c0 .001 0 .001 0 0zm271 40.001h-472v-20h472z" fill="#ff3b3f" data-original="#000000" style="" class=""/><path d="m148.514 302.021h-30.001c-11.028 0-20 8.972-20 20v50c0 11.028 8.972 20 20 20h30.001c11.027 0 19.999-8.972 19.999-20v-50c0-11.028-8.972-20-19.999-20zm-30.001 70-.002-50h30.002l.001 50z" fill="#ff3b3f" data-original="#000000" style="" class=""/><path d="m363.512 392.021h30.001c11.027 0 19.999-8.972 19.999-20v-50c0-11.028-8.972-20-19.999-20h-30.001c-11.028 0-20 8.972-20 20v50c0 11.028 8.972 20 20 20zm30-70 .001 50h-30.001l-.002-50z" fill="#ff3b3f" data-original="#000000" style="" class=""/><path d="m156.43 180.961c-5.522 0-10 4.477-10 10s4.478 10 10 10h.007c5.522 0 9.997-4.477 9.997-10s-4.482-10-10.004-10z" fill="#ff3b3f" data-original="#000000" style="" class=""/></g></g></g></svg>
