<?xml version="1.0"?>
<svg xmlns="http://www.w3.org/2000/svg" xmlns:xlink="http://www.w3.org/1999/xlink" xmlns:svgjs="http://svgjs.com/svgjs" version="1.1" width="512" height="512" x="0" y="0" viewBox="0 0 510.001 510.001" style="enable-background:new 0 0 512 512" xml:space="preserve" class=""><g><g xmlns="http://www.w3.org/2000/svg"><path d="m269.981 298.879c-1.129-5.019-4.752-9.108-9.597-10.835l-28.328-10.099-10.099-28.328c-1.727-4.845-5.816-8.468-10.835-9.597l-29.091-6.548c-5.036-1.133-10.304.402-13.942 4.069l-79.479 80.104c-2.253 2.253-5.684 3.188-9.41 2.565-42.109-7.046-78.935 23.38-79.199 65.975-.2 32.439 21.156 61.692 51.818 71.997 17.617 52.426 84.048 68.737 120.009 31.875 15.121-15.5 21.667-37.099 17.962-59.256-.623-3.726.313-7.156 2.524-9.369l80.146-79.52c3.666-3.637 5.203-8.904 4.069-13.942zm-98.838 101.299c-9.061 9.061-13.151 22.359-10.941 35.571 2.11 12.621-1.479 24.78-9.847 33.359-21.68 22.223-64.446 8.872-71.521-25.773-2.639-15.041 1.448-26.791 9.881-35.224 5.857-5.858 5.857-15.355 0-21.213-5.858-5.857-15.355-5.857-21.213 0-9.903 9.904-16.271 22.631-18.569 36.361-22.134-16.242-24.912-47.153-8.038-63.612 8.578-8.369 20.735-11.958 33.358-9.848 13.214 2.211 26.512-1.881 35.613-10.983l73.675-74.254 12.934 2.911 9.714 27.249c1.512 4.242 4.85 7.58 9.092 9.092l27.249 9.714 2.911 12.934z" fill="#ff3b3f" data-original="#000000" style=""/><path d="m460.892 49.11c-9.124-28.249-35.756-49.326-68.05-49.107-42.485.249-73.887 37.224-67.998 78.818.514 3.631-.557 7.08-2.895 9.418l-73.359 72.764c-9.479 9.403-2.811 25.65 10.563 25.65h20.932l3.817 26.719c.943 6.6 6.128 11.785 12.728 12.728l26.719 3.817v20.932c0 13.349 16.228 20.062 25.65 10.563l72.72-73.316c2.381-2.381 5.829-3.455 9.461-2.938 41.547 5.882 78.568-25.455 78.819-67.998.192-32.645-21.16-59.024-49.107-68.05zm7.558 95.675c-8.722 8.52-20.772 12.41-33.064 10.668-12.864-1.822-25.902 2.452-34.923 11.472l-47.291 47.678c-.994-6.429-6.086-11.601-12.702-12.545l-28.461-4.066-4.066-28.46c-.945-6.616-6.117-11.708-12.546-12.702l47.721-47.334c8.978-8.977 13.25-22.016 11.429-34.879-1.74-12.291 2.148-24.342 10.668-33.064 21.651-22.167 62.497-11.161 68.473 22.169 2.188 14.361-2.307 26.436-10.757 34.886-5.858 5.858-5.858 15.355 0 21.213 5.857 5.858 15.355 5.858 21.213 0 9.964-9.964 16.495-22.676 19.011-36.286 20.706 15.119 22.176 44.762 5.295 61.25z" fill="#ff3b3f" data-original="#000000" style=""/><path d="m151.139 166.862c5.857 5.858 15.355 5.859 21.213 0 5.858-5.858 5.858-15.355 0-21.213l-33.941-33.941c-5.857-5.858-15.355-5.858-21.213 0s-5.858 15.355 0 21.213z" fill="#ff3b3f" data-original="#000000" style=""/><path d="m207 126.001c8.284 0 15-6.716 15-15v-48c0-8.284-6.716-15-15-15s-15 6.716-15 15v48c0 8.284 6.716 15 15 15z" fill="#ff3b3f" data-original="#000000" style=""/><path d="m68.491 216.511h48c8.284 0 15-6.716 15-15s-6.716-15-15-15h-48c-8.284 0-15 6.716-15 15s6.715 15 15 15z" fill="#ff3b3f" data-original="#000000" style=""/><path d="m367.146 337.365c-5.857-5.857-15.354-5.858-21.213 0-5.858 5.857-5.858 15.355 0 21.213l33.941 33.941c2.929 2.929 6.767 4.394 10.606 4.394 13.244 0 20.082-16.13 10.606-25.606z" fill="#ff3b3f" data-original="#000000" style=""/><path d="m311.285 378.226c-8.284 0-15 6.716-15 15v48c0 8.284 6.716 15 15 15s15-6.716 15-15v-48c0-8.284-6.716-15-15-15z" fill="#ff3b3f" data-original="#000000" style=""/><path d="m449.794 287.717h-48c-8.284 0-15 6.716-15 15s6.716 15 15 15h48c8.284 0 15-6.716 15-15s-6.715-15-15-15z" fill="#ff3b3f" data-original="#000000" style=""/></g></g></svg>
