<?xml version="1.0"?>
<svg xmlns="http://www.w3.org/2000/svg" xmlns:xlink="http://www.w3.org/1999/xlink" xmlns:svgjs="http://svgjs.com/svgjs" version="1.1" width="512" height="512" x="0" y="0" viewBox="0 0 512 512" style="enable-background:new 0 0 512 512" xml:space="preserve" class=""><g><g xmlns="http://www.w3.org/2000/svg"><path d="m39.985 79.678h22.609c-.121 1.146-.182 2.305-.182 3.474 0 17.887 14.552 32.438 32.438 32.438h73.819c17.887 0 32.439-14.552 32.439-32.438s-14.552-32.438-32.439-32.438h-22.609c.121-1.146.182-2.305.182-3.474 0-17.887-14.552-32.438-32.438-32.438h-73.82c-17.887 0-32.438 14.552-32.438 32.438s14.553 32.438 32.439 32.438zm0-49.878h73.82c9.616 0 17.439 7.823 17.439 17.439 0 2.689-.597 5.27-1.775 7.669-1.141 2.324-1.002 5.073.368 7.271 1.37 2.197 3.776 3.533 6.365 3.533h32.468c9.617 0 17.44 7.823 17.44 17.439s-7.823 17.439-17.44 17.439h-73.819c-9.616 0-17.439-7.823-17.439-17.439 0-2.689.597-5.27 1.775-7.669 1.141-2.324 1.002-5.073-.368-7.271-1.37-2.197-3.776-3.533-6.365-3.533h-32.469c-9.616 0-17.439-7.823-17.439-17.439s7.823-17.439 17.439-17.439z" fill="#ff3b3f" data-original="#000000" style="" class=""/><path d="m318.668 168.897h56.938c14.742 0 26.736-11.993 26.736-26.735 0-.323-.005-.644-.017-.964h4.03c14.742 0 26.736-11.993 26.736-26.736 0-14.742-11.993-26.735-26.736-26.735h-45.368c-14.742 0-26.735 11.993-26.735 26.735 0 .323.005.644.017.964h-15.6c-14.742 0-26.736 11.993-26.736 26.736 0 14.742 11.993 26.735 26.735 26.735zm0-38.472h25.043c2.59 0 4.996-1.336 6.365-3.533 1.37-2.198 1.508-4.946.367-7.271-.791-1.612-1.193-3.348-1.193-5.159 0-6.471 5.265-11.736 11.736-11.736h45.368c6.472 0 11.737 5.265 11.737 11.736 0 6.472-5.265 11.737-11.737 11.737h-13.474c-2.59 0-4.996 1.336-6.365 3.533-1.37 2.198-1.508 4.946-.367 7.271.792 1.613 1.193 3.348 1.193 5.159 0 6.471-5.265 11.736-11.737 11.736h-56.938c-6.472 0-11.737-5.265-11.737-11.736.003-6.472 5.268-11.737 11.739-11.737z" fill="#ff3b3f" data-original="#000000" style="" class=""/><path d="m506.542 436.823-80.935-140.192c-6.006-10.403-15.938-17.332-27.404-19.439v-23.521l42.103-24.308c2.32-1.34 3.75-3.815 3.75-6.495s-1.43-5.155-3.75-6.495l-45.853-26.473c-2.32-1.34-5.179-1.34-7.5 0-2.32 1.34-3.75 3.815-3.75 6.495v80.81c-11.432 2.125-21.331 9.048-27.323 19.426l-.592 1.025-86.923-150.557c-11.955-20.7-33.363-33.057-57.27-33.057-.001 0-.005 0-.007 0-23.904.002-45.308 12.361-57.256 33.058l-16.359 28.328c-2.072 3.587-.843 8.173 2.744 10.244 3.585 2.072 8.173.843 10.244-2.744l16.36-28.329c9.237-16.002 25.786-25.556 44.268-25.558h.005c18.484 0 35.038 9.555 44.281 25.558l91.252 158.056-9.558 16.556c-1.461.289-2.951.452-4.463.452-12.615 0-22.878-10.267-22.878-22.888 0-20.886-16.992-37.878-37.878-37.878s-37.878 16.992-37.878 37.878c0 12.621-10.263 22.888-22.878 22.888s-22.878-10.267-22.878-22.888c0-20.886-16.997-37.878-37.888-37.878-20.886 0-37.878 16.992-37.878 37.878 0 12.621-10.263 22.888-22.878 22.888-7.411 0-14.177-3.509-18.435-9.347l64.356-111.46c2.071-3.587.842-8.173-2.745-10.244-3.587-2.072-8.174-.843-10.244 2.745l-113.542 196.649c-11.951 20.708-11.949 45.432.007 66.136 11.953 20.7 33.361 33.058 57.266 33.058h373.327c4.142 0 7.5-3.358 7.5-7.5s-3.358-7.5-7.5-7.5h-129.753c-9.134 0-17.311-4.72-21.877-12.627-4.563-7.904-4.562-17.344.003-25.25l15.496-26.842c4.817 2.638 10.243 4.043 15.888 4.043 18.284 0 33.158-14.875 33.158-33.158 0-10.007 8.142-18.148 18.149-18.148 10.013 0 18.159 8.141 18.159 18.148 0 18.284 14.875 33.158 33.158 33.158s33.158-14.875 33.158-33.158c0-2.68.608-5.295 1.718-7.671l36.733 63.628c4.565 7.907 4.566 17.346.003 25.25-4.565 7.907-12.743 12.627-21.877 12.627h-2.16c-4.142 0-7.5 3.358-7.5 7.5s3.358 7.5 7.5 7.5h2.16c14.556 0 27.59-7.524 34.866-20.127 7.275-12.601 7.274-27.647-.002-40.25zm-108.339-200.472v-26.967l23.355 13.484zm-123.257 200.472c-7.276 12.603-7.277 27.649-.003 40.249 1.052 1.822 2.238 3.525 3.518 5.128h-212.227c-18.483 0-35.034-9.555-44.277-25.559-9.244-16.008-9.246-35.125-.006-51.137l41.277-71.488c6.931 6.737 16.281 10.646 26.346 10.646 20.886 0 37.878-16.996 37.878-37.887 0-12.615 10.263-22.878 22.878-22.878 12.621 0 22.889 10.263 22.889 22.878 0 20.891 16.992 37.887 37.878 37.887s37.878-16.996 37.878-37.887c0-12.615 10.263-22.878 22.878-22.878s22.878 10.263 22.878 22.878c0 19.433 14.704 35.487 33.567 37.635zm165.156-48.458c0 10.013-8.146 18.159-18.159 18.159s-18.159-8.146-18.159-18.159c0-18.278-14.875-33.147-33.158-33.147-18.278 0-33.148 14.87-33.148 33.147 0 10.013-8.146 18.159-18.159 18.159-2.967 0-5.822-.716-8.38-2.05l57.93-100.343c4.548-7.877 12.68-12.589 21.766-12.626.023 0 .044.003.067.003.033 0 .065-.004.098-.005 9.107.02 17.259 4.736 21.816 12.627l35.905 62.192c-5.346 6.015-8.419 13.87-8.419 22.043z" fill="#ff3b3f" data-original="#000000" style="" class=""/></g></g></svg>
