<?xml version="1.0"?>
<svg xmlns="http://www.w3.org/2000/svg" xmlns:xlink="http://www.w3.org/1999/xlink" xmlns:svgjs="http://svgjs.com/svgjs" version="1.1" width="512" height="512" x="0" y="0" viewBox="0 0 64 64" style="enable-background:new 0 0 512 512" xml:space="preserve" class=""><g><g xmlns="http://www.w3.org/2000/svg" id="Fatigue"><path d="m49.21 44.02-13.62-2.92-3.46-4.8a12 12 0 0 0 5.82-9.3h1.05a3.009 3.009 0 0 0 3-3v-2a3.009 3.009 0 0 0 -3-3h-1v-2.55a8.982 8.982 0 0 0 4-7.45v-6a1 1 0 0 0 -1-1h-22a9.014 9.014 0 0 0 -9 9v2a5.017 5.017 0 0 0 4 4.9v1.1h-1a3.009 3.009 0 0 0 -3 3v2a3.009 3.009 0 0 0 3 3h1.05a12 12 0 0 0 5.82 9.3l-3.46 4.8-13.62 2.92a1 1 0 0 0 -.79.98v12a1.008 1.008 0 0 0 .83.99l23 4a1.45 1.45 0 0 0 .34 0l23-4a1.008 1.008 0 0 0 .83-.99v-12a1 1 0 0 0 -.79-.98zm-35.21-19.02h-1a1 1 0 0 1 -1-1v-2a1 1 0 0 1 1-1h1zm25-4a1 1 0 0 1 1 1v2a1 1 0 0 1 -1 1h-1v-4zm-25-6v.82a3.01 3.01 0 0 1 -2-2.82v-2a7.008 7.008 0 0 1 7-7h21v5a6.962 6.962 0 0 1 -2.38 5.23.907.907 0 0 0 -.36-.2l-15-4a1.007 1.007 0 0 0 -.76.1l-7 4a1 1 0 0 0 -.5.87zm2 11v-10.42l6.14-3.51 13.86 3.7v10.23a10 10 0 0 1 -20 0zm5.69 11.19a11.872 11.872 0 0 0 8.62 0l3.08 4.29-7.39 2.47-7.39-2.47zm-5.69 21.06-6-1.05v-4.2h6zm26-1.05-6 1.05v-5.25h6zm6-1.04-4 .69v-4.85a1 1 0 0 0 -1-1h-8a1 1 0 0 0 -1 1v6.59l-8 1.4-8-1.4v-6.59a1 1 0 0 0 -1-1h-8a1 1 0 0 0 -1 1v4.85l-4-.69v-10.35l12.94-2.78 8.74 2.92a1.049 1.049 0 0 0 .64 0l8.74-2.92 12.94 2.78z" fill="#ff3b3f" data-original="#000000" style=""/><path d="m34.555 20.832-1.11-1.664a4.4 4.4 0 0 1 -4.89 0l-1.11 1.664a6.4 6.4 0 0 0 7.11 0z" fill="#ff3b3f" data-original="#000000" style=""/><path d="m18.555 19.168-1.11 1.664a6.4 6.4 0 0 0 7.11 0l-1.11-1.664a4.4 4.4 0 0 1 -4.89 0z" fill="#ff3b3f" data-original="#000000" style=""/><path d="m57.707 16.707a1 1 0 0 0 -.707-1.707h-7v2h4.586l-4.293 4.293a1 1 0 0 0 .707 1.707h7v-2h-4.586z" fill="#ff3b3f" data-original="#000000" style=""/><path d="m49.707 26.707a1 1 0 0 0 -.707-1.707h-5v2h2.586l-2.293 2.293a1 1 0 0 0 .707 1.707h5v-2h-2.586z" fill="#ff3b3f" data-original="#000000" style=""/><path d="m55.414 10 6.293-6.293a1 1 0 0 0 -.707-1.707h-9v2h6.586l-6.293 6.293a1 1 0 0 0 .707 1.707h9v-2z" fill="#ff3b3f" data-original="#000000" style=""/><path d="m6 15h2v2h-2z" fill="#ff3b3f" data-original="#000000" style=""/><path d="m4 17h2v2h-2z" fill="#ff3b3f" data-original="#000000" style=""/><path d="m8 17h2v2h-2z" fill="#ff3b3f" data-original="#000000" style=""/><path d="m6 19h2v2h-2z" fill="#ff3b3f" data-original="#000000" style=""/><path d="m4 7h2v2h-2z" fill="#ff3b3f" data-original="#000000" style=""/><path d="m2 9h2v2h-2z" fill="#ff3b3f" data-original="#000000" style=""/><path d="m6 9h2v2h-2z" fill="#ff3b3f" data-original="#000000" style=""/><path d="m4 11h2v2h-2z" fill="#ff3b3f" data-original="#000000" style=""/><path d="m4 23h2v2h-2z" fill="#ff3b3f" data-original="#000000" style=""/><path d="m2 25h2v2h-2z" fill="#ff3b3f" data-original="#000000" style=""/><path d="m6 25h2v2h-2z" fill="#ff3b3f" data-original="#000000" style=""/><path d="m4 27h2v2h-2z" fill="#ff3b3f" data-original="#000000" style=""/><path d="m44 15h2v2h-2z" fill="#ff3b3f" data-original="#000000" style=""/><path d="m46 17h2v2h-2z" fill="#ff3b3f" data-original="#000000" style=""/><path d="m42 17h2v2h-2z" fill="#ff3b3f" data-original="#000000" style=""/><path d="m44 19h2v2h-2z" fill="#ff3b3f" data-original="#000000" style=""/><path d="m46 7h2v2h-2z" fill="#ff3b3f" data-original="#000000" style=""/><path d="m48 9h2v2h-2z" fill="#ff3b3f" data-original="#000000" style=""/><path d="m44 9h2v2h-2z" fill="#ff3b3f" data-original="#000000" style=""/><path d="m46 11h2v2h-2z" fill="#ff3b3f" data-original="#000000" style=""/><path d="m25 48h2v2h-2z" fill="#ff3b3f" data-original="#000000" style=""/><path d="m25 52h2v2h-2z" fill="#ff3b3f" data-original="#000000" style=""/><path d="m25 56h2v2h-2z" fill="#ff3b3f" data-original="#000000" style=""/></g></g></svg>
