<?xml version="1.0"?>
<svg xmlns="http://www.w3.org/2000/svg" xmlns:xlink="http://www.w3.org/1999/xlink" xmlns:svgjs="http://svgjs.com/svgjs" version="1.1" width="512" height="512" x="0" y="0" viewBox="0 0 512 512" style="enable-background:new 0 0 512 512" xml:space="preserve" class=""><g><g xmlns="http://www.w3.org/2000/svg"><circle cx="401" cy="400" r="10" fill="#ff3b3f" data-original="#000000" style="" class=""/><path d="m408.07 87.93c-1.86-1.86-4.44-2.93-7.07-2.93h-84.958l67.929-67.929c2.86-2.86 3.715-7.161 2.167-10.898-1.547-3.736-5.194-6.173-9.238-6.173h-56.8c-2.759 0-5.396 1.141-7.286 3.15l-11.139 11.85h-91.35l-11.139-11.85c-1.89-2.009-4.527-3.15-7.286-3.15h-56.8c-4.044 0-7.691 2.437-9.239 6.173-1.548 3.737-.692 8.038 2.167 10.898l67.93 67.929h-84.958c-2.63 0-5.21 1.069-7.07 2.93-1.86 1.86-2.93 4.44-2.93 7.07v407c0 2.63 1.07 5.21 2.93 7.069 1.86 1.86 4.44 2.931 7.07 2.931h290c2.63 0 5.21-1.07 7.07-2.931 1.86-1.859 2.93-4.439 2.93-7.069v-57c0-5.51-4.49-10-10-10s-10 4.49-10 10v47h-270v-387h95v30c0 5.522 4.477 10 10 10h60c5.523 0 10-4.478 10-10v-30h95v250c0 5.51 4.49 10 10 10 5.52 0 10-4.49 10-10v-260c0-2.63-1.07-5.21-2.93-7.07zm-83.646-67.93h28.333l-36.757 36.758v-27.796zm-136.848 0 8.424 8.962v27.796l-36.758-36.758zm88.424 105h-40v-20h40zm-10-40v-20c0-5.522-4.477-10-10-10s-10 4.478-10 10v20h-30l.018-50h79.964l.018 50z" fill="#ff3b3f" data-original="#000000" style="" class=""/><path d="m266 215v-40c0-5.522-4.477-10-10-10s-10 4.478-10 10v40c0 5.522 4.477 10 10 10s10-4.478 10-10z" fill="#ff3b3f" data-original="#000000" style="" class=""/><path d="m300 382c0-5.522-4.477-10-10-10h-68c-5.523 0-10 4.478-10 10s4.477 10 10 10h68c5.523 0 10-4.478 10-10z" fill="#ff3b3f" data-original="#000000" style="" class=""/><path d="m243 422c0-5.51-4.49-10-10-10h-67c-5.51 0-10 4.49-10 10s4.49 10 10 10h67c5.51 0 10-4.49 10-10z" fill="#ff3b3f" data-original="#000000" style="" class=""/><path d="m346 412h-68c-5.51 0-10 4.49-10 10s4.49 10 10 10h68c5.51 0 10-4.49 10-10s-4.49-10-10-10z" fill="#ff3b3f" data-original="#000000" style="" class=""/><circle cx="301" cy="462" r="10" fill="#ff3b3f" data-original="#000000" style="" class=""/><circle cx="256" cy="462" r="10" fill="#ff3b3f" data-original="#000000" style="" class=""/><circle cx="346" cy="462" r="10" fill="#ff3b3f" data-original="#000000" style="" class=""/><circle cx="166" cy="462" r="10" fill="#ff3b3f" data-original="#000000" style="" class=""/><circle cx="211" cy="462" r="10" fill="#ff3b3f" data-original="#000000" style="" class=""/><circle cx="166" cy="255" r="10" fill="#ff3b3f" data-original="#000000" style="" class=""/><circle cx="256" cy="255" r="10" fill="#ff3b3f" data-original="#000000" style="" class=""/><circle cx="346" cy="255" r="10" fill="#ff3b3f" data-original="#000000" style="" class=""/><circle cx="301" cy="255" r="10" fill="#ff3b3f" data-original="#000000" style="" class=""/><circle cx="211" cy="255" r="10" fill="#ff3b3f" data-original="#000000" style="" class=""/><path d="m356 175c0-5.522-4.477-10-10-10h-40c-5.523 0-10 4.478-10 10v40c0 5.522 4.477 10 10 10h40c5.523 0 10-4.478 10-10zm-20 30h-20v-20h20z" fill="#ff3b3f" data-original="#000000" style="" class=""/><path d="m206 165h-40c-5.523 0-10 4.478-10 10v40c0 5.522 4.477 10 10 10h40c5.523 0 10-4.478 10-10v-40c0-5.522-4.477-10-10-10zm-10 40h-20v-20h20z" fill="#ff3b3f" data-original="#000000" style="" class=""/><path d="m156 335c0 5.522 4.477 10 10 10h40c5.523 0 10-4.478 10-10v-40c0-5.522-4.477-10-10-10h-40c-5.523 0-10 4.478-10 10zm20-30h20v20h-20z" fill="#ff3b3f" data-original="#000000" style="" class=""/><path d="m246 335c0 5.51 4.49 10 10 10s10-4.49 10-10v-30h20c5.51 0 10-4.49 10-10s-4.49-10-10-10h-30c-2.63 0-5.21 1.069-7.07 2.93-1.86 1.86-2.93 4.44-2.93 7.07z" fill="#ff3b3f" data-original="#000000" style="" class=""/><path d="m346 305h-10v-10c0-5.51-4.49-10-10-10s-10 4.49-10 10v20c0 2.63 1.07 5.21 2.93 7.069 1.86 1.86 4.44 2.931 7.07 2.931h20c5.51 0 10-4.49 10-10s-4.49-10-10-10z" fill="#ff3b3f" data-original="#000000" style="" class=""/></g></g></svg>
